PathFileType	4	(X/Y/Z)	C:/Users/opensim2020/Desktop/walking_exp_matlab/subject03_walking15_straight_01.trc																																																																																																																																											
DataRate	CameraRate	NumFrames	NumMarkers	Units	OrigDataRate	OrigDataStartFrame	OrigNumFrames																																																																																																																																							
100	100	6	47	mm	100	550	196																																																																																																																																							
Frame#	Time	LFHD			RFHD			LBHD			RBHD			C7			T10			CLAV			STRN			RBAK			LSHO			LUPA			LELB			LFRM			LWRA			LWRB			LFIN			RSHO			RUPA			RELB			RFRM			RWRA			RWRB			RFIN			LASI			RASI			LPSI			RPSI			LTHI			LKNE			LTIB			LANK			LHEE			LTOE			RTHI			RKNE			RTIB			RANK			RHEE			RTOE			*39			*40			*41			*42			*43			*44			*45			*46		
		X1	Y1	Z1	X2	Y2	Z2	X3	Y3	Z3	X4	Y4	Z4	X5	Y5	Z5	X6	Y6	Z6	X7	Y7	Z7	X8	Y8	Z8	X9	Y9	Z9	X10	Y10	Z10	X11	Y11	Z11	X12	Y12	Z12	X13	Y13	Z13	X14	Y14	Z14	X15	Y15	Z15	X16	Y16	Z16	X17	Y17	Z17	X18	Y18	Z18	X19	Y19	Z19	X20	Y20	Z20	X21	Y21	Z21	X22	Y22	Z22	X23	Y23	Z23	X24	Y24	Z24	X25	Y25	Z25	X26	Y26	Z26	X27	Y27	Z27	X28	Y28	Z28	X29	Y29	Z29	X30	Y30	Z30	X31	Y31	Z31	X32	Y32	Z32	X33	Y33	Z33	X34	Y34	Z34	X35	Y35	Z35	X36	Y36	Z36	X37	Y37	Z37	X38	Y38	Z38	X39	Y39	Z39	X40	Y40	Z40	X41	Y41	Z41	X42	Y42	Z42	X43	Y43	Z43	X44	Y44	Z44	X45	Y45	Z45	X46	Y46	Z46	X47	Y47	Z47
																																																																																																																																														
50	0.49	-450.98218	1627.36072	1397.23584	-450.13538	1631.1333	1530.34912	-568.82416	1562.09546	1403.53613	-563.41107	1566.15894	1534.29883	-579.01599	1413.41345	1466.29285	-623.63147	1106.41602	1463.75916	-455.59735	1339.41589	1456.9386	-416.29041	1171.90906	1446.79041	-622.51099	1241.17395	1568.70459	-513.20099	1378.15039	1305.12122	-535.87366	1183.14893	1231.95508	-534.41608	1059.85986	1217.23328	-499.77414	934.40131	1216.64014	-466.70175	820.5899	1246.93018	-495.04495	821.55499	1198.92346	-468.38229	742.29022	1207.21924	-488.24994	1361.43738	1619.02991	-449.13971	1145.64282	1693.84338	-412.31116	1039.36658	1705.42883	-365.97467	910.25824	1704.70874	-321.41434	823.04761	1663.76086	-343.51105	812.35657	1711.57129	-304.70837	749.56287	1698.46143	-470.65213	938.86548	1338.73328	-463.24933	934.79651	1572.77222	-632.77509	958.33752	1391.2063	-624.15625	972.60736	1540.07568	-444.96375	648.20599	1281.62585	-374.34158	484.60385	1311.86377	-417.23035	289.31903	1326.30493	-431.45557	83.50643	1378.25281	-468.30258	51.42725	1424.22583	-286.40494	46.34187	1381.08447	-552.04773	646.37805	1618.59155	-569.66473	468.04556	1584.65784	-645.09546	290.20673	1596.77527	-709.95233	80.7406	1555.01245	-761.10553	51.50243	1508.96118	-572.93951	36.83602	1530.27808	-541.20642	1672.83423	1450.03015	NaN	NaN	NaN	NaN	NaN	NaN	NaN	NaN	NaN	NaN	NaN	NaN	NaN	NaN	NaN	NaN	NaN	NaN	NaN	NaN	NaN
51	0.5	-439.45273	1625.48669	1396.56445	-438.50818	1629.6178	1529.5769	-557.18042	1560.06372	1403.19299	-551.63507	1564.48193	1533.91919	-567.01563	1411.60645	1466.12231	-611.86353	1104.61963	1463.3949	-443.7981	1337.45496	1456.93677	-404.65784	1169.68677	1447.22864	-610.97412	1239.66162	1568.76221	-501.53799	1375.60364	1304.90186	-526.44238	1180.578	1232.13721	-526.22333	1057.17761	1216.9834	-495.30402	930.87543	1215.22021	-466.9682	815.07391	1244.98401	-494.27414	818.01447	1196.52185	-469.96964	738.0072	1203.84058	-476.23239	1359.96826	1618.92603	-435.07724	1144.81165	1693.8833	-396.83408	1039.09619	1705.47668	-348.3851	910.76172	1704.51965	-302.16541	824.75421	1663.51367	-324.25537	813.23749	1711.01111	-283.95853	751.62244	1698.05469	-458.0134	936.85767	1339.31104	-452.51077	932.86224	1573.87952	-620.07703	955.96124	1390.31982	-613.11603	970.38568	1539.45459	-431.45618	646.53259	1281.45996	-360.54178	483.81693	1313.56909	-392.6611	286.55264	1325.49792	-393.53461	79.07066	1375.09692	-429.05963	45.64896	1420.26416	-245.93259	47.85316	1380.69763	-542.89178	645.19006	1618.8479	-562.68506	466.94199	1584.99255	-641.14508	290.27591	1596.7467	-709.44873	81.91353	1555.01599	-760.75299	53.34745	1508.73352	-572.74982	36.76135	1530.35669	-529.5733	1670.85974	1449.18811	NaN	NaN	NaN	NaN	NaN	NaN	NaN	NaN	NaN	NaN	NaN	NaN	NaN	NaN	NaN	NaN	NaN	NaN	NaN	NaN	NaN
52	0.51	-427.80325	1623.65405	1395.84302	-426.76981	1628.15186	1528.87097	-545.36249	1557.94653	1402.73853	-539.80219	1562.81702	1533.4668	-555.0542	1409.83704	1465.88171	-600.01135	1102.79419	1462.88599	-431.7998	1335.5885	1456.953	-392.89197	1167.71082	1447.8136	-599.1825	1238.07776	1568.69458	-489.66501	1373.17554	1304.69116	-516.64246	1178.07764	1231.92102	-518.92108	1054.88867	1216.56348	-490.9501	927.52228	1213.81995	-465.85898	810.71472	1242.38904	-493.63208	814.92395	1194.15503	-471.08499	734.15491	1200.18982	-464.18503	1358.44788	1618.87183	-421.16635	1143.93726	1693.91284	-381.49231	1038.77466	1705.40015	-331.0506	911.27795	1704.28418	-283.39178	826.37518	1663.2229	-305.39545	814.146	1710.54907	-263.73373	753.5943	1697.61475	-444.3385	935.37836	1339.69873	-441.38635	931.25525	1574.68494	-607.44922	953.82312	1389.33557	-601.65863	968.06104	1538.43518	-418.61038	644.25769	1281.60388	-347.03598	482.53012	1315.52551	-369.3736	284.52444	1324.75342	-357.34415	76.47414	1371.31824	-391.29907	41.31546	1415.79797	-207.60855	50.02888	1380.27417	-533.62744	644.07739	1618.9989	-555.40021	465.97931	1585.36157	-636.94293	290.58966	1596.83862	-708.63983	83.17937	1555.0116	-760.27466	55.43533	1508.67053	-572.46802	36.66246	1530.45557	-518.47583	1668.97925	1449.14832	NaN	NaN	NaN	NaN	NaN	NaN	NaN	NaN	NaN	NaN	NaN	NaN	NaN	NaN	NaN	NaN	NaN	NaN	NaN	NaN	NaN
53	0.52	-416.21841	1621.81616	1395.06226	-415.056	1626.6969	1528.11389	-533.64087	1555.85864	1402.2771	-527.90637	1561.0979	1532.95422	-542.91272	1408.11938	1465.60999	-588.01929	1101.05627	1462.30823	-419.83142	1333.67419	1456.88245	-380.86124	1165.80737	1448.42285	-587.56549	1236.5896	1568.5376	-477.51648	1370.81201	1304.33875	-507.08853	1175.7948	1231.96411	-510.65997	1052.74475	1216.13342	-486.55295	924.44543	1212.53162	-464.91501	806.57288	1240.02649	-492.93698	812.00647	1192.16956	-472.86401	730.784	1197.07813	-452.20227	1356.94714	1618.80176	-407.43771	1143.08606	1693.87598	-366.38696	1038.42065	1705.22656	-314.08224	911.72308	1703.91162	-265.11621	827.64508	1662.70972	-286.97067	815.0022	1709.97595	-243.89542	755.67706	1697.37634	-431.07797	933.53925	1340.07642	-430.24945	929.69189	1575.19495	-594.53314	951.46686	1388.07764	-590.03174	965.75677	1537.22437	-406.45193	641.57935	1281.56812	-334.01913	480.8717	1317.69238	-347.52817	283.09708	1324.0957	-323.13651	74.64449	1367.64087	-356.13034	38.51493	1410.89697	-171.84665	53.0618	1379.79187	-524.30945	643.16669	1619.12695	-547.97028	465.16269	1585.78088	-632.52411	291.11197	1596.9563	-707.74274	84.69171	1555.04333	-759.85339	57.94241	1508.59937	-572.24988	36.56585	1530.61011	-506.7605	1666.96399	1448.16858	NaN	NaN	NaN	NaN	NaN	NaN	NaN	NaN	NaN	NaN	NaN	NaN	NaN	NaN	NaN	NaN	NaN	NaN	NaN	NaN	NaN
54	0.53	-404.55743	1619.9574	1394.23425	-403.28305	1625.27209	1527.30408	-521.73407	1553.74524	1401.69788	-515.99469	1559.39722	1532.39612	-530.76099	1406.4375	1465.24365	-575.93152	1099.26208	1461.65173	-407.74326	1331.86536	1456.89636	-368.73438	1164.02527	1449.01587	-575.71558	1235.08911	1568.28809	-465.21545	1368.40771	1304.05005	-497.23883	1173.63367	1231.81055	-503.06842	1050.7085	1215.58508	-481.88458	921.66772	1211.27795	-463.54294	803.11182	1237.66138	-491.88745	809.54041	1190.22424	-474.29575	727.7984	1194.20276	-440.25208	1355.54211	1618.66882	-393.95438	1142.25159	1693.8313	-351.6019	1038.0647	1705.0376	-297.52026	912.12323	1703.55225	-247.07367	829.3382	1662.4574	-269.02222	815.82776	1709.40515	-224.6349	757.56531	1696.78271	-417.50027	931.65277	1340.19397	-418.55539	928.13458	1575.46387	-581.56592	949.35602	1386.65283	-578.23346	963.58044	1535.76416	-395.13351	638.55725	1281.46912	-321.01904	479.19864	1319.79626	-326.74353	282.02698	1323.71619	-291.69632	73.9103	1363.9928	-323.77646	36.61132	1406.8335	-139.09239	57.44357	1378.71021	-514.78607	642.43591	1619.11267	-540.25452	464.42609	1586.2063	-627.89203	291.81259	1597.20654	-706.91443	86.63188	1555.34583	-759.24744	60.75229	1508.81213	-572.06726	36.43251	1530.6488	-495.38013	1665.4707	1447.40515	NaN	NaN	NaN	NaN	NaN	NaN	NaN	NaN	NaN	NaN	NaN	NaN	NaN	NaN	NaN	NaN	NaN	NaN	NaN	NaN	NaN
55	0.54	-392.70621	1618.29419	1393.37122	-391.54691	1623.98889	1526.45532	-509.7858	1551.63147	1401.11438	-503.97034	1557.72278	1531.78845	-518.65991	1404.6875	1464.88293	-563.49091	1097.45947	1461.01111	-395.62167	1330.16956	1456.95374	-356.49023	1162.35864	1449.44519	-563.67004	1233.41455	1567.96033	-452.75211	1366.17505	1303.80957	-487.06216	1171.65344	1231.54504	-494.51038	1048.76843	1215.09302	-477.00461	919.17645	1210.09167	-461.29672	800.18103	1235.02075	-490.5307	807.50494	1188.24951	-475.56091	725.24799	1191.52942	-428.30499	1354.20593	1618.58167	-380.64725	1141.42188	1693.74683	-337.13406	1037.67603	1704.77148	-281.39255	912.47571	1703.13525	-229.83163	830.46454	1661.90588	-251.57681	816.63171	1708.77856	-206.02612	759.37988	1696.32336	-403.80991	929.84198	1339.98022	-406.62891	926.66827	1575.6189	-568.34174	947.24097	1385.14063	-566.0459	961.51654	1534.17773	-383.81033	635.16223	1280.84814	-307.90506	477.60312	1322.00403	-307.07352	281.28729	1323.57471	-262.93503	74.16034	1361.0896	-294.08572	34.92607	1402.81702	-109.5064	62.93562	1377.23901	-504.98999	641.86121	1619.22278	-532.06293	463.81647	1586.72156	-622.83734	292.69263	1597.5321	-705.60797	88.69266	1555.71338	-758.48163	63.95129	1509.24109	-571.77234	36.26125	1530.81677	-483.71643	1663.56958	1446.43652	NaN	NaN	NaN	NaN	NaN	NaN	NaN	NaN	NaN	NaN	NaN	NaN	NaN	NaN	NaN	NaN	NaN	NaN	NaN	NaN	NaN
